<svg width="857" height="240" viewBox="0 0 857 240" fill="none" xmlns="http://www.w3.org/2000/svg">
<path fill-rule="evenodd" clip-rule="evenodd" d="M290.404 141.203C290.306 140.95 290.112 140.736 289.858 140.619C289.605 140.503 289.313 140.503 289.06 140.581C284.543 142.253 277.054 143.614 271.154 143.614C258.244 143.614 252.091 140.133 252.091 120.359C252.091 104.552 253.98 97.1047 271.154 97.1047C276.022 97.1047 281.913 97.8047 287.657 99.4768C288.124 99.613 288.63 99.3991 288.845 98.9713C290.438 95.4691 292.752 89.8049 294.455 85.6355L294.455 85.6348C294.691 85.0579 294.915 84.5097 295.123 83.9998C295.26 83.7276 295.26 83.4165 295.143 83.1442C295.026 82.872 294.792 82.6582 294.5 82.5609C286.945 80.1499 277.93 78.75 269.81 78.75C242.764 78.75 230.711 91.4855 230.711 120.068C230.711 149.058 242.764 161.988 269.81 161.988C276.586 161.988 289.944 160.569 296.389 158.002C296.895 157.788 297.168 157.205 296.973 156.699L290.404 141.203ZM81.2069 81.8983C81.2069 81.3549 81.6462 80.9144 82.188 80.9144L137.731 80.9144C138.424 80.9144 138.894 81.631 138.624 82.2786L131.746 98.8108C131.564 99.2475 131.149 99.4461 130.754 99.4068C130.722 99.4101 130.689 99.4117 130.656 99.4117H102.007V158.839C102.007 159.383 101.568 159.823 101.026 159.823H82.188C81.6462 159.823 81.2069 159.383 81.2069 158.839V81.8983ZM143.281 120.064C143.281 90.3321 153.577 78.75 180.018 78.75C206.671 78.75 217.063 90.3321 217.063 120.064C217.063 150.248 206.671 161.988 180.018 161.988C153.577 161.988 143.281 150.248 143.281 120.064ZM164.219 120.359C164.219 141.321 167.971 144.664 180.018 144.664C192.296 144.664 196.125 141.321 196.125 120.359C196.125 98.0404 191.949 96.0544 180.018 96.0544C168.318 96.0544 164.219 98.0404 164.219 120.359Z" fill="#0066B3"/>
<path fill-rule="evenodd" clip-rule="evenodd" d="M448.65 141.203C448.553 140.95 448.358 140.736 448.105 140.619C447.852 140.503 447.56 140.503 447.307 140.581C442.789 142.253 435.3 143.614 429.4 143.614C416.491 143.614 410.338 140.133 410.338 120.359C410.338 104.552 412.226 97.1047 429.4 97.1047C434.268 97.1047 440.159 97.8047 445.903 99.4768C446.371 99.613 446.877 99.3991 447.091 98.9713C448.685 95.4691 450.998 89.8049 452.701 85.6355L452.701 85.6348C452.937 85.0579 453.161 84.5097 453.37 83.9998C453.506 83.7276 453.506 83.4165 453.389 83.1442C453.272 82.872 453.039 82.6582 452.747 82.5609C445.192 80.1499 436.176 78.75 428.057 78.75C401.011 78.75 388.958 91.4855 388.958 120.068C388.958 149.058 401.011 161.988 428.057 161.988C434.833 161.988 448.19 160.569 454.635 158.002C455.142 157.788 455.414 157.205 455.22 156.699L448.65 141.203ZM465.127 159.823H484.473C484.884 159.823 485.276 159.547 485.394 159.154C488.373 149.767 491.019 139.2 493.254 127.551C495.175 117.605 496.347 108.182 497.043 99.4114H515.952V158.839C515.952 159.382 516.392 159.823 516.934 159.823H535.771C536.313 159.823 536.753 159.382 536.753 158.839V81.898C536.753 81.3546 536.313 80.9141 535.771 80.9141H478.279C477.75 80.9141 477.318 81.3273 477.299 81.8586C476.769 93.6457 475.515 106.85 473.124 121.175C470.791 135.029 467.42 147.524 464.186 158.563C464.009 159.193 464.48 159.823 465.127 159.823ZM640.433 80.9141C639.891 80.9141 639.452 81.3546 639.452 81.898V158.839C639.452 159.382 639.891 159.823 640.433 159.823H659.271C659.813 159.823 660.252 159.382 660.252 158.839V99.4114H688.901C688.934 99.4114 688.967 99.4097 688.999 99.4065C689.394 99.4458 689.809 99.2471 689.991 98.8105L696.869 82.2783C697.139 81.6306 696.669 80.9141 695.976 80.9141L640.433 80.9141ZM306.012 80.9144C305.331 80.9144 304.858 81.5861 305.092 82.2202L333.713 159.836C329.675 168.351 325.187 177.314 320.055 187.305C319.72 187.959 320.188 188.75 320.922 188.75H341.284C341.654 188.75 341.994 188.537 342.161 188.207C357.228 157.462 368.315 130.208 383.473 82.2146C383.679 81.5801 383.211 80.9144 382.545 80.9144H363.633C363.194 80.9144 362.806 81.214 362.686 81.6364C356.85 102.154 351.47 118.214 345.232 133.691L326.006 81.5524C325.864 81.1692 325.497 80.9144 325.086 80.9144H306.012ZM548.58 82.2199C548.346 81.5857 548.82 80.9141 549.5 80.9141H568.574C568.985 80.9141 569.353 81.1689 569.494 81.552L588.721 133.691C594.958 118.213 600.339 102.154 606.174 81.6361C606.295 81.2137 606.682 80.9141 607.121 80.9141H626.033C626.7 80.9141 627.168 81.5798 626.961 82.2142C611.803 130.207 600.716 157.461 585.65 188.207C585.483 188.537 585.142 188.749 584.772 188.749H564.411C563.676 188.749 563.208 187.959 563.544 187.305C568.676 177.314 573.163 168.351 577.202 159.835L548.58 82.2199ZM756.012 80.9141H774.839C775.388 80.9141 775.82 81.346 775.8 81.8958V82.0136V154.33C775.8 154.762 775.545 155.154 775.133 155.292C766.406 158.63 751.698 161.987 738.519 161.987C715.946 161.987 706.807 152.091 706.356 126.821C706.336 126.762 706.336 82.0136 706.336 82.0136V81.8958C706.336 81.346 706.768 80.9141 707.317 80.9141H726.144C726.693 80.9141 727.125 81.346 727.125 81.8958V126.389C727.556 139.819 730.87 143.04 742.284 143.04C746.873 143.04 750.952 142.49 755.032 141.351V81.8958C755.032 81.346 755.463 80.9141 756.012 80.9141Z" fill="#EE2F53"/>
</svg>
